<svg version="1.1" id="Layer_1" xmlns="http://www.w3.org/2000/svg" xmlns:xlink="http://www.w3.org/1999/xlink" x="0px" y="0px"
	 width="100%" viewBox="0 0 2509 536" enable-background="new 0 0 2509 536" xml:space="preserve">
<path fill="#FFFFFF" opacity="1.000000" stroke="none" 
	d="
M1831.000000,537.000000 
	C1220.666626,537.000000 610.833313,537.000000 1.000000,537.000000 
	C1.000000,358.333344 1.000000,179.666672 1.000000,1.000000 
	C837.333313,1.000000 1673.666626,1.000000 2510.000000,1.000000 
	C2510.000000,179.666672 2510.000000,358.333344 2510.000000,537.000000 
	C2283.833252,537.000000 2057.666748,537.000000 1831.000000,537.000000 
M39.454773,328.113556 
	C38.088223,330.137115 36.343971,332.002319 35.417953,334.210632 
	C30.371574,346.244873 29.178989,359.231537 31.362257,371.597198 
	C35.769566,396.559509 52.953999,411.782104 80.089287,412.591064 
	C91.124565,423.610229 101.407104,435.543396 113.389938,445.411987 
	C127.649193,457.155426 143.972549,466.002625 161.187332,473.089966 
	C183.710449,482.362732 207.204605,486.828674 231.386734,487.901764 
	C238.448303,488.215088 245.559738,487.224884 252.653732,487.024506 
	C268.734131,486.570221 284.207977,482.976227 299.455963,478.184204 
	C320.354584,471.616394 339.364594,461.522034 357.097565,448.608154 
	C371.971619,437.776306 385.099518,425.226685 396.394775,410.898499 
	C408.461090,395.592224 418.028961,378.680664 425.178619,360.458588 
	C432.884094,340.819794 437.755341,320.458984 438.844391,299.462555 
	C440.063782,275.953156 437.887909,252.752945 431.209930,229.882675 
	C422.629974,200.498459 408.332825,174.454666 388.097504,151.771088 
	C369.402740,130.814560 347.168762,114.478783 321.485626,102.667587 
	C300.445465,92.991585 278.472961,86.729019 255.596725,85.340851 
	C238.359070,84.294846 220.762009,85.052505 203.634689,87.333298 
	C181.433884,90.289719 160.432724,98.061172 140.730560,109.016243 
	C114.879654,123.390251 93.090340,142.295624 75.367043,166.044403 
	C51.905933,197.481705 39.086990,232.905121 36.200649,271.748810 
	C34.811733,290.440491 35.572308,309.289368 39.454773,328.113556 
M1985.285400,321.320831 
	C1985.162598,321.190002 1985.039795,321.059143 1984.990601,320.095337 
	C1984.995972,319.601074 1984.912231,319.086456 1985.019775,318.615509 
	C1988.657349,302.685913 1992.358154,286.770599 1995.954834,270.831818 
	C2000.657715,249.990723 2005.288940,229.133469 2009.934570,208.279495 
	C2013.631348,191.684738 2017.307007,175.085281 2020.985718,158.486526 
	C2025.819214,136.677032 2030.659302,114.868950 2035.468140,93.054001 
	C2036.765015,87.170174 2037.959106,81.263695 2039.277710,75.000366 
	C2015.870361,75.000366 1993.384521,75.025681 1970.899048,74.966942 
	C1968.217529,74.959946 1967.438110,75.927177 1966.866821,78.635460 
	C1962.389893,99.862068 1957.652588,121.034142 1952.936523,142.209839 
	C1947.306641,167.489166 1941.635742,192.759384 1935.950317,218.026276 
	C1929.981079,244.554550 1923.955811,271.070251 1917.988159,297.598907 
	C1913.298706,318.445282 1908.699585,339.312073 1903.983887,360.152527 
	C1900.734131,374.514679 1897.276367,388.829956 1894.050537,403.197418 
	C1889.404907,423.889069 1884.861206,444.603790 1880.338257,465.322693 
	C1879.667847,468.393677 1879.349487,471.541504 1878.814819,475.000000 
	C1900.747925,475.000000 1921.895508,475.000031 1943.042969,475.000000 
	C1950.605225,475.000000 1950.442749,474.893555 1952.030518,467.485840 
	C1956.441406,446.907776 1961.077271,426.378021 1965.594604,405.822693 
	C1968.757080,391.432892 1971.827148,377.022736 1975.025024,362.640869 
	C1976.606201,355.530212 1978.382690,348.463043 1980.163940,340.985260 
	C1988.343140,354.396454 1996.200317,367.226776 2004.005249,380.088776 
	C2017.361206,402.098633 2030.912109,423.994507 2043.952881,446.189880 
	C2055.523438,465.882812 2072.434814,474.231476 2095.098145,474.143890 
	C2185.427490,473.794769 2275.758789,474.017426 2366.089355,473.956787 
	C2371.512451,473.953125 2377.035156,473.869720 2382.341064,472.895630 
	C2406.169922,468.520874 2426.557373,457.993225 2441.867432,438.660828 
	C2461.285400,414.141541 2472.980713,387.043701 2469.987549,355.022858 
	C2468.210449,336.015778 2459.125732,321.597015 2442.459961,312.151001 
	C2429.358887,304.725464 2414.894531,302.329010 2400.176270,302.108887 
	C2374.182861,301.720123 2348.178223,301.846802 2322.181152,302.090607 
	C2314.071777,302.166687 2306.767334,300.289337 2299.777344,296.378082 
	C2295.353760,293.902832 2293.183105,290.245178 2293.006348,285.302460 
	C2292.495361,271.005035 2301.234131,258.487366 2314.665771,255.256882 
	C2325.528809,252.644196 2336.914795,251.710648 2348.124023,251.159332 
	C2361.757324,250.488800 2375.448486,251.000000 2389.114746,251.000000 
	C2418.613770,251.000000 2448.113281,250.934692 2477.611572,251.076508 
	C2481.634277,251.095840 2483.501709,250.174347 2483.056396,245.798950 
	C2482.489502,240.233322 2482.776367,234.553986 2481.885010,229.054947 
	C2480.746826,222.031494 2478.847412,215.130997 2473.995605,209.502029 
	C2463.211426,196.990158 2449.298340,191.936874 2433.094482,191.976868 
	C2401.262451,192.055466 2369.429443,192.063477 2337.597412,191.972702 
	C2322.123291,191.928574 2306.806152,193.074799 2291.791748,197.012497 
	C2274.081299,201.657303 2258.134277,209.343048 2244.863037,222.454376 
	C2234.609131,232.584778 2228.164307,244.773529 2223.031006,257.887817 
	C2214.748779,279.045959 2210.310059,300.824158 2214.089600,323.554291 
	C2216.253418,336.569214 2223.310791,346.704834 2235.712646,351.768921 
	C2249.844482,357.539429 2264.773438,360.060944 2280.105713,360.017242 
	C2303.271484,359.951202 2326.439697,359.819641 2349.602539,360.091766 
	C2358.450928,360.195709 2367.334473,360.964294 2376.117188,362.092590 
	C2388.538330,363.688263 2396.251953,373.505127 2393.880127,385.078186 
	C2391.374023,397.306915 2385.565430,407.714050 2372.297852,410.737823 
	C2362.810059,412.900177 2353.031250,414.087158 2343.314941,414.840240 
	C2336.787354,415.346161 2330.142334,414.052856 2323.549072,414.044006 
	C2266.550781,413.967560 2209.552734,414.023743 2152.554443,413.956635 
	C2147.803955,413.951050 2142.986084,413.724091 2138.317383,412.917694 
	C2128.457275,411.214661 2118.968018,407.311249 2113.252441,399.200134 
	C2097.477295,376.812836 2082.639160,353.763794 2067.577393,330.879639 
	C2066.950439,329.926819 2067.235596,327.400238 2068.057129,326.623444 
	C2073.914307,321.085236 2079.945801,315.723785 2086.065430,310.473053 
	C2096.887451,301.187408 2107.861328,292.078186 2118.678955,282.787445 
	C2129.148682,273.795746 2139.465088,264.625580 2149.916016,255.611893 
	C2161.343506,245.755920 2172.824463,235.961655 2184.327393,226.193604 
	C2192.440918,219.303818 2200.680420,212.562073 2208.765381,205.638901 
	C2213.626709,201.475983 2218.299316,197.092072 2223.252441,192.631104 
	C2222.404297,192.271881 2222.124268,192.049591 2221.843994,192.049332 
	C2192.511963,192.022202 2163.179932,191.997772 2133.847900,192.050858 
	C2132.654541,192.053009 2131.182861,192.475754 2130.311279,193.239304 
	C2115.962646,205.810501 2101.640381,218.412643 2087.415771,231.124130 
	C2076.348877,241.014114 2065.480225,251.126007 2054.424805,261.029083 
	C2039.593750,274.314423 2024.691650,287.520874 2009.772461,300.707214 
	C2001.770142,307.779999 1993.667603,314.739441 1985.285400,321.320831 
M675.833069,411.953430 
	C674.920410,411.626312 674.009338,411.294617 673.094849,410.972778 
	C657.204651,405.380981 643.847839,396.203705 640.807251,378.848846 
	C638.624634,366.391541 638.651550,353.078430 640.380493,340.517059 
	C642.823425,322.768585 647.679504,305.346344 651.629272,287.812836 
	C655.327576,271.395752 659.234741,255.025787 662.968018,238.616425 
	C668.281677,215.260742 673.538818,191.892136 678.781250,168.520325 
	C680.648315,160.196716 682.402283,151.847733 684.318359,143.000000 
	C674.197815,143.000000 664.702576,142.743774 655.228210,143.078568 
	C647.205872,143.362045 639.093872,143.696686 631.219849,145.111801 
	C607.039124,149.457550 601.538269,157.766449 597.029053,177.197418 
	C593.150208,193.912018 589.622681,210.707840 585.803650,227.436676 
	C581.626404,245.734131 577.221741,263.979706 573.045776,282.277405 
	C568.004150,304.368103 562.821228,326.432709 558.248230,348.621674 
	C555.885925,360.084045 554.127258,371.745758 553.220642,383.404846 
	C552.682678,390.323792 553.952026,397.475281 555.083618,404.412079 
	C557.153687,417.101868 561.614868,428.786407 570.770874,438.313263 
	C581.684082,449.668579 594.660950,457.771301 609.017029,464.076141 
	C628.950378,472.830414 649.830261,477.191742 671.430542,477.873077 
	C683.334106,478.248566 695.283936,477.465790 707.202759,476.962830 
	C718.892761,476.469543 730.652527,476.310760 742.229004,474.819794 
	C753.432800,473.376831 764.545776,470.830963 775.513428,468.041351 
	C793.082275,463.572723 809.048828,455.198914 824.371460,445.792603 
	C840.161316,436.099457 854.078918,424.002563 864.618835,408.638947 
	C874.114563,394.797394 880.555725,379.351227 884.940186,363.192413 
	C890.271057,343.545349 895.188904,323.780518 899.940857,303.983887 
	C903.568481,288.871246 906.742065,273.647369 909.968933,258.441406 
	C914.139648,238.788025 918.060059,219.081253 922.278259,199.438278 
	C926.304932,180.687378 930.575439,161.988815 934.798218,143.000000 
	C924.800598,143.000000 915.281494,142.740097 905.783508,143.076492 
	C897.094360,143.384262 888.248474,143.456787 879.788269,145.184067 
	C860.891479,149.042114 852.419312,155.960571 847.987183,175.045334 
	C841.289490,203.885574 834.548157,232.715820 827.757751,261.534393 
	C823.231995,280.741760 818.469788,299.893951 814.031738,319.121277 
	C809.582703,338.395874 804.499146,357.355530 794.168091,374.566864 
	C784.936584,389.946289 772.809265,401.845551 755.641235,407.629181 
	C738.109009,413.535492 720.019165,416.484222 701.447876,414.947968 
	C693.165039,414.262817 684.930298,412.997772 675.833069,411.953430 
M1826.500000,360.000000 
	C1833.997803,360.000000 1841.509399,359.732056 1848.987671,360.114227 
	C1852.669922,360.302399 1853.909912,358.712097 1854.733276,355.663330 
	C1860.200195,335.422424 1863.103027,314.740479 1863.770508,293.874023 
	C1864.097290,283.655426 1862.587402,273.261261 1860.883179,263.118866 
	C1857.340210,242.030731 1846.527466,225.208710 1828.910767,213.019760 
	C1808.040649,198.579865 1784.181641,193.553299 1759.421021,192.130936 
	C1750.878906,191.640228 1742.250366,192.689835 1733.659790,192.991577 
	C1717.117065,193.572678 1701.164307,197.265961 1685.394165,201.998779 
	C1662.088501,208.993027 1641.552612,221.073105 1624.116577,237.747787 
	C1612.465942,248.889618 1603.764282,262.759491 1596.548218,277.165161 
	C1584.677612,300.863129 1575.668457,325.632080 1573.034180,352.264954 
	C1571.359009,369.202850 1570.761108,386.166504 1573.953369,403.040375 
	C1579.657593,433.192139 1597.662109,453.134918 1625.828247,463.816315 
	C1645.747070,471.370056 1666.635132,474.955200 1688.010498,474.982361 
	C1733.495239,475.040100 1778.980103,475.000000 1824.464844,475.000000 
	C1826.228882,475.000000 1827.993042,475.000000 1830.456909,475.000000 
	C1829.940186,467.796967 1829.275513,461.250885 1829.045166,454.689514 
	C1828.685059,444.422852 1824.344360,435.913605 1817.824585,428.373413 
	C1808.864624,418.011292 1796.806396,414.266541 1783.745850,414.105682 
	C1755.759521,413.760925 1727.762817,414.233093 1699.777100,413.860626 
	C1691.176758,413.746185 1682.420044,412.721619 1674.068115,410.721924 
	C1667.653564,409.186127 1661.154297,406.519684 1656.923340,400.591339 
	C1648.791016,389.196106 1651.926758,376.881714 1653.703247,364.598602 
	C1654.295044,360.505005 1656.423828,359.921356 1660.055420,359.928162 
	C1715.203491,360.031616 1770.351807,360.000000 1826.500000,360.000000 
M1115.848755,474.993835 
	C1140.140259,474.993835 1164.431763,474.993835 1189.033691,474.993835 
	C1189.033691,473.414764 1188.825073,472.231415 1189.064697,471.147125 
	C1193.361328,451.708435 1197.668823,432.271912 1202.062622,412.855042 
	C1207.669312,388.079407 1213.556641,363.365448 1218.937622,338.541382 
	C1222.646484,321.431366 1225.685181,304.176544 1229.053467,286.992279 
	C1231.782837,273.067505 1233.409302,259.091064 1230.996460,244.939651 
	C1227.274536,223.109482 1214.711792,208.749146 1194.129028,200.936615 
	C1174.660645,193.547104 1154.335449,192.198730 1133.861694,192.047363 
	C1107.536255,191.852722 1081.208130,192.000000 1054.881226,192.000000 
	C1035.552612,192.000000 1016.223511,192.060272 996.895691,191.931763 
	C994.156433,191.913559 992.596985,192.588226 992.011108,195.333832 
	C989.375549,207.684662 986.622498,220.010651 984.036194,232.371613 
	C978.595215,258.375732 973.292175,284.408783 967.819092,310.406067 
	C962.949158,333.538605 957.983643,356.651459 952.957031,379.750488 
	C946.068665,411.404480 939.082581,443.037201 932.068115,474.998993 
	C956.022888,474.998993 979.670349,475.049866 1003.315735,474.855255 
	C1004.554260,474.845062 1006.565857,472.936157 1006.884583,471.594604 
	C1010.736023,455.379639 1014.296814,439.095978 1018.013550,422.848572 
	C1021.621216,407.077301 1025.392700,391.343353 1028.964600,375.564148 
	C1033.931152,353.624420 1038.738647,331.648743 1043.689697,309.705475 
	C1047.393188,293.291016 1051.489746,276.958038 1054.781128,260.463074 
	C1055.545410,256.632874 1056.712036,255.933884 1060.061279,255.950897 
	C1079.722656,256.050842 1099.386719,255.849182 1119.045654,256.092499 
	C1124.889771,256.164825 1130.802979,256.940033 1136.538208,258.109985 
	C1145.403687,259.918457 1152.292358,264.587494 1153.563354,274.274445 
	C1154.149414,278.740875 1153.707153,283.486450 1152.919067,287.962494 
	C1150.332642,302.651764 1147.573975,317.317627 1144.506226,331.913574 
	C1140.878174,349.175323 1136.786011,366.338928 1133.028076,383.574097 
	C1127.371704,409.516479 1121.760620,435.469330 1116.309082,461.455261 
	C1115.386353,465.853729 1115.362305,470.440735 1115.848755,474.993835 
M1509.064087,160.694870 
	C1509.448730,158.958252 1509.811401,157.216415 1510.221313,155.485733 
	C1515.812256,131.882385 1521.444092,108.288574 1526.963623,84.668510 
	C1527.678223,81.610039 1527.820679,78.417839 1528.245361,75.154770 
	C1502.701172,75.154770 1478.080811,75.154770 1453.121094,75.154770 
	C1450.057373,90.458351 1447.192505,105.719681 1443.923218,120.893806 
	C1437.718872,149.689682 1431.314087,178.442581 1424.934204,207.200333 
	C1418.660645,235.478104 1412.343506,263.746246 1405.991211,292.006409 
	C1400.385254,316.945831 1394.276001,341.781677 1389.203857,366.828278 
	C1385.669434,384.281097 1381.412842,401.695648 1382.854126,419.889435 
	C1383.764648,431.382721 1386.830078,441.971649 1393.083374,451.448761 
	C1404.154053,468.226562 1421.129639,474.370544 1440.134155,474.844269 
	C1465.442017,475.475037 1490.777588,474.946320 1516.100586,475.070312 
	C1519.149536,475.085236 1520.444458,474.143433 1521.047852,471.180542 
	C1523.114136,461.031006 1525.394653,450.924835 1527.614502,440.806763 
	C1529.400513,432.666107 1531.216919,424.532074 1533.328857,415.000000 
	C1517.513794,415.000000 1502.437500,415.250702 1487.374390,414.910706 
	C1477.545532,414.688843 1469.874878,409.856537 1465.119507,401.257690 
	C1459.413818,390.940674 1460.082764,379.683899 1462.248169,368.711487 
	C1465.410522,352.687469 1469.379272,336.822662 1473.001099,320.889252 
	C1477.985107,298.961975 1483.133179,277.069336 1487.782715,255.071320 
	C1488.553101,251.426727 1489.912964,250.951477 1492.950562,250.960327 
	C1517.274292,251.031296 1541.598633,250.940628 1565.921875,251.070648 
	C1569.180664,251.088058 1570.543091,250.147217 1571.087402,246.866074 
	C1571.985962,241.448685 1573.448853,236.125992 1574.638550,230.755539 
	C1577.466064,217.993378 1580.272705,205.226624 1583.222290,191.852234 
	C1555.883789,191.852234 1529.026123,191.852234 1502.025513,191.852234 
	C1504.435669,181.390900 1506.721191,171.470566 1509.064087,160.694870 
M1351.461792,324.031860 
	C1361.197388,280.213165 1370.933105,236.394485 1380.574585,192.999985 
	C1366.256958,192.999985 1352.983643,192.304352 1339.826294,193.239319 
	C1330.731567,193.885605 1321.564575,196.065964 1312.856934,198.881210 
	C1304.429199,201.605942 1298.833618,208.220444 1296.097900,216.767319 
	C1294.229858,222.602936 1292.608398,228.536133 1291.236694,234.508362 
	C1287.722412,249.808594 1284.350708,265.142334 1281.030273,280.486145 
	C1276.818481,299.949249 1272.781128,319.450165 1268.542480,338.907318 
	C1264.788452,356.139099 1260.817627,373.323639 1257.022217,390.546539 
	C1252.146240,412.672394 1247.340332,434.813690 1242.524902,456.952820 
	C1241.244873,462.837738 1240.040039,468.739014 1238.723511,475.000000 
	C1263.619629,475.000000 1287.596191,474.865387 1311.568848,475.113373 
	C1316.374146,475.163086 1318.623535,474.455353 1319.686157,469.021820 
	C1323.006714,452.040710 1327.228149,435.237518 1330.976929,418.337921 
	C1335.603271,397.482147 1340.141357,376.606567 1344.645630,355.724060 
	C1346.865356,345.433258 1348.923340,335.107544 1351.461792,324.031860 
M911.500000,127.000000 
	C920.620972,127.000000 929.741943,127.000000 938.458008,127.000000 
	C942.425964,109.088600 946.264160,91.762642 950.156860,74.190582 
	C923.195862,74.190582 896.757996,74.190582 870.283081,74.190582 
	C866.257690,91.820328 862.271851,109.277054 858.225220,127.000000 
	C875.866333,127.000000 893.183167,127.000000 911.500000,127.000000 
M650.500000,127.000000 
	C662.802124,127.000000 675.104248,127.000000 687.662537,127.000000 
	C691.564087,109.394386 695.426880,91.963737 699.407837,74.000000 
	C697.071167,74.000000 695.435547,74.000000 693.799988,74.000000 
	C673.326782,74.000000 652.853638,73.985710 632.380432,74.012344 
	C628.400146,74.017525 623.414917,72.774292 620.735840,74.687355 
	C618.283630,76.438408 618.161438,81.642242 617.294800,85.389877 
	C614.129883,99.077171 611.082886,112.791740 607.877747,127.000000 
	C621.948120,127.000000 635.724060,127.000000 650.500000,127.000000 
M1310.671753,177.000000 
	C1335.290405,177.000000 1359.908936,177.000000 1384.788086,177.000000 
	C1388.691650,159.362305 1392.545776,141.947449 1396.478394,124.177841 
	C1369.483643,124.177841 1343.399170,124.177841 1317.122070,124.177841 
	C1313.046875,141.721283 1309.000244,159.141724 1304.851929,177.000000 
	C1306.764160,177.000000 1308.242432,177.000000 1310.671753,177.000000 
z"/>
<path fill="#0F4876" opacity="1.000000" stroke="none" 
	d="
M1985.610229,321.750000 
	C1993.667603,314.739441 2001.770142,307.779999 2009.772461,300.707214 
	C2024.691650,287.520874 2039.593750,274.314423 2054.424805,261.029083 
	C2065.480225,251.126007 2076.348877,241.014114 2087.415771,231.124130 
	C2101.640381,218.412643 2115.962646,205.810501 2130.311279,193.239304 
	C2131.182861,192.475754 2132.654541,192.053009 2133.847900,192.050858 
	C2163.179932,191.997772 2192.511963,192.022202 2221.843994,192.049332 
	C2222.124268,192.049591 2222.404297,192.271881 2223.252441,192.631104 
	C2218.299316,197.092072 2213.626709,201.475983 2208.765381,205.638901 
	C2200.680420,212.562073 2192.440918,219.303818 2184.327393,226.193604 
	C2172.824463,235.961655 2161.343506,245.755920 2149.916016,255.611893 
	C2139.465088,264.625580 2129.148682,273.795746 2118.678955,282.787445 
	C2107.861328,292.078186 2096.887451,301.187408 2086.065430,310.473053 
	C2079.945801,315.723785 2073.914307,321.085236 2068.057129,326.623444 
	C2067.235596,327.400238 2066.950439,329.926819 2067.577393,330.879639 
	C2082.639160,353.763794 2097.477295,376.812836 2113.252441,399.200134 
	C2118.968018,407.311249 2128.457275,411.214661 2138.317383,412.917694 
	C2142.986084,413.724091 2147.803955,413.951050 2152.554443,413.956635 
	C2209.552734,414.023743 2266.550781,413.967560 2323.549072,414.044006 
	C2330.142334,414.052856 2336.787354,415.346161 2343.314941,414.840240 
	C2353.031250,414.087158 2362.810059,412.900177 2372.297852,410.737823 
	C2385.565430,407.714050 2391.374023,397.306915 2393.880127,385.078186 
	C2396.251953,373.505127 2388.538330,363.688263 2376.117188,362.092590 
	C2367.334473,360.964294 2358.450928,360.195709 2349.602539,360.091766 
	C2326.439697,359.819641 2303.271484,359.951202 2280.105713,360.017242 
	C2264.773438,360.060944 2249.844482,357.539429 2235.712646,351.768921 
	C2223.310791,346.704834 2216.253418,336.569214 2214.089600,323.554291 
	C2210.310059,300.824158 2214.748779,279.045959 2223.031006,257.887817 
	C2228.164307,244.773529 2234.609131,232.584778 2244.863037,222.454376 
	C2258.134277,209.343048 2274.081299,201.657303 2291.791748,197.012497 
	C2306.806152,193.074799 2322.123291,191.928574 2337.597412,191.972702 
	C2369.429443,192.063477 2401.262451,192.055466 2433.094482,191.976868 
	C2449.298340,191.936874 2463.211426,196.990158 2473.995605,209.502029 
	C2478.847412,215.130997 2480.746826,222.031494 2481.885010,229.054947 
	C2482.776367,234.553986 2482.489502,240.233322 2483.056396,245.798950 
	C2483.501709,250.174347 2481.634277,251.095840 2477.611572,251.076508 
	C2448.113281,250.934692 2418.613770,251.000000 2389.114746,251.000000 
	C2375.448486,251.000000 2361.757324,250.488800 2348.124023,251.159332 
	C2336.914795,251.710648 2325.528809,252.644196 2314.665771,255.256882 
	C2301.234131,258.487366 2292.495361,271.005035 2293.006348,285.302460 
	C2293.183105,290.245178 2295.353760,293.902832 2299.777344,296.378082 
	C2306.767334,300.289337 2314.071777,302.166687 2322.181152,302.090607 
	C2348.178223,301.846802 2374.182861,301.720123 2400.176270,302.108887 
	C2414.894531,302.329010 2429.358887,304.725464 2442.459961,312.151001 
	C2459.125732,321.597015 2468.210449,336.015778 2469.987549,355.022858 
	C2472.980713,387.043701 2461.285400,414.141541 2441.867432,438.660828 
	C2426.557373,457.993225 2406.169922,468.520874 2382.341064,472.895630 
	C2377.035156,473.869720 2371.512451,473.953125 2366.089355,473.956787 
	C2275.758789,474.017426 2185.427490,473.794769 2095.098145,474.143890 
	C2072.434814,474.231476 2055.523438,465.882812 2043.952881,446.189880 
	C2030.912109,423.994507 2017.361206,402.098633 2004.005249,380.088776 
	C1996.200317,367.226776 1988.343140,354.396454 1980.163940,340.985260 
	C1978.382690,348.463043 1976.606201,355.530212 1975.025024,362.640869 
	C1971.827148,377.022736 1968.757080,391.432892 1965.594604,405.822693 
	C1961.077271,426.378021 1956.441406,446.907776 1952.030518,467.485840 
	C1950.442749,474.893555 1950.605225,475.000000 1943.042969,475.000000 
	C1921.895508,475.000031 1900.747925,475.000000 1878.814819,475.000000 
	C1879.349487,471.541504 1879.667847,468.393677 1880.338257,465.322693 
	C1884.861206,444.603790 1889.404907,423.889069 1894.050537,403.197418 
	C1897.276367,388.829956 1900.734131,374.514679 1903.983887,360.152527 
	C1908.699585,339.312073 1913.298706,318.445282 1917.988159,297.598907 
	C1923.955811,271.070251 1929.981079,244.554550 1935.950317,218.026276 
	C1941.635742,192.759384 1947.306641,167.489166 1952.936523,142.209839 
	C1957.652588,121.034142 1962.389893,99.862068 1966.866821,78.635460 
	C1967.438110,75.927177 1968.217529,74.959946 1970.899048,74.966942 
	C1993.384521,75.025681 2015.870361,75.000366 2039.277710,75.000366 
	C2037.959106,81.263695 2036.765015,87.170174 2035.468140,93.054001 
	C2030.659302,114.868950 2025.819214,136.677032 2020.985718,158.486526 
	C2017.307007,175.085281 2013.631348,191.684738 2009.934570,208.279495 
	C2005.288940,229.133469 2000.657715,249.990723 1995.954834,270.831818 
	C1992.358154,286.770599 1988.657349,302.685913 1985.019775,318.615509 
	C1984.912231,319.086456 1984.995972,319.601074 1984.678223,320.618774 
	C1984.303589,321.599365 1984.241455,322.056458 1984.179321,322.513611 
	C1984.656250,322.259064 1985.133301,322.004547 1985.610229,321.750000 
z"/>
<path fill="#0F4876" opacity="1.000000" stroke="none" 
	d="
M676.253418,411.974670 
	C684.930298,412.997772 693.165039,414.262817 701.447876,414.947968 
	C720.019165,416.484222 738.109009,413.535492 755.641235,407.629181 
	C772.809265,401.845551 784.936584,389.946289 794.168091,374.566864 
	C804.499146,357.355530 809.582703,338.395874 814.031738,319.121277 
	C818.469788,299.893951 823.231995,280.741760 827.757751,261.534393 
	C834.548157,232.715820 841.289490,203.885574 847.987183,175.045334 
	C852.419312,155.960571 860.891479,149.042114 879.788269,145.184067 
	C888.248474,143.456787 897.094360,143.384262 905.783508,143.076492 
	C915.281494,142.740097 924.800598,143.000000 934.798218,143.000000 
	C930.575439,161.988815 926.304932,180.687378 922.278259,199.438278 
	C918.060059,219.081253 914.139648,238.788025 909.968933,258.441406 
	C906.742065,273.647369 903.568481,288.871246 899.940857,303.983887 
	C895.188904,323.780518 890.271057,343.545349 884.940186,363.192413 
	C880.555725,379.351227 874.114563,394.797394 864.618835,408.638947 
	C854.078918,424.002563 840.161316,436.099457 824.371460,445.792603 
	C809.048828,455.198914 793.082275,463.572723 775.513428,468.041351 
	C764.545776,470.830963 753.432800,473.376831 742.229004,474.819794 
	C730.652527,476.310760 718.892761,476.469543 707.202759,476.962830 
	C695.283936,477.465790 683.334106,478.248566 671.430542,477.873077 
	C649.830261,477.191742 628.950378,472.830414 609.017029,464.076141 
	C594.660950,457.771301 581.684082,449.668579 570.770874,438.313263 
	C561.614868,428.786407 557.153687,417.101868 555.083618,404.412079 
	C553.952026,397.475281 552.682678,390.323792 553.220642,383.404846 
	C554.127258,371.745758 555.885925,360.084045 558.248230,348.621674 
	C562.821228,326.432709 568.004150,304.368103 573.045776,282.277405 
	C577.221741,263.979706 581.626404,245.734131 585.803650,227.436676 
	C589.622681,210.707840 593.150208,193.912018 597.029053,177.197418 
	C601.538269,157.766449 607.039124,149.457550 631.219849,145.111801 
	C639.093872,143.696686 647.205872,143.362045 655.228210,143.078568 
	C664.702576,142.743774 674.197815,143.000000 684.318359,143.000000 
	C682.402283,151.847733 680.648315,160.196716 678.781250,168.520325 
	C673.538818,191.892136 668.281677,215.260742 662.968018,238.616425 
	C659.234741,255.025787 655.327576,271.395752 651.629272,287.812836 
	C647.679504,305.346344 642.823425,322.768585 640.380493,340.517059 
	C638.651550,353.078430 638.624634,366.391541 640.807251,378.848846 
	C643.847839,396.203705 657.204651,405.380981 673.094849,410.972778 
	C674.009338,411.294617 674.920410,411.626312 676.253418,411.974670 
z"/>
<path fill="#0F4876" opacity="1.000000" stroke="none" 
	d="
M1826.000000,360.000000 
	C1770.351807,360.000000 1715.203491,360.031616 1660.055420,359.928162 
	C1656.423828,359.921356 1654.295044,360.505005 1653.703247,364.598602 
	C1651.926758,376.881714 1648.791016,389.196106 1656.923340,400.591339 
	C1661.154297,406.519684 1667.653564,409.186127 1674.068115,410.721924 
	C1682.420044,412.721619 1691.176758,413.746185 1699.777100,413.860626 
	C1727.762817,414.233093 1755.759521,413.760925 1783.745850,414.105682 
	C1796.806396,414.266541 1808.864624,418.011292 1817.824585,428.373413 
	C1824.344360,435.913605 1828.685059,444.422852 1829.045166,454.689514 
	C1829.275513,461.250885 1829.940186,467.796967 1830.456909,475.000000 
	C1827.993042,475.000000 1826.228882,475.000000 1824.464844,475.000000 
	C1778.980103,475.000000 1733.495239,475.040100 1688.010498,474.982361 
	C1666.635132,474.955200 1645.747070,471.370056 1625.828247,463.816315 
	C1597.662109,453.134918 1579.657593,433.192139 1573.953369,403.040375 
	C1570.761108,386.166504 1571.359009,369.202850 1573.034180,352.264954 
	C1575.668457,325.632080 1584.677612,300.863129 1596.548218,277.165161 
	C1603.764282,262.759491 1612.465942,248.889618 1624.116577,237.747787 
	C1641.552612,221.073105 1662.088501,208.993027 1685.394165,201.998779 
	C1701.164307,197.265961 1717.117065,193.572678 1733.659790,192.991577 
	C1742.250366,192.689835 1750.878906,191.640228 1759.421021,192.130936 
	C1784.181641,193.553299 1808.040649,198.579865 1828.910767,213.019760 
	C1846.527466,225.208710 1857.340210,242.030731 1860.883179,263.118866 
	C1862.587402,273.261261 1864.097290,283.655426 1863.770508,293.874023 
	C1863.103027,314.740479 1860.200195,335.422424 1854.733276,355.663330 
	C1853.909912,358.712097 1852.669922,360.302399 1848.987671,360.114227 
	C1841.509399,359.732056 1833.997803,360.000000 1826.000000,360.000000 
M1716.500000,302.000000 
	C1738.262207,302.000000 1760.024536,302.000000 1783.000000,302.000000 
	C1783.000000,295.734161 1782.839722,290.003265 1783.030029,284.284088 
	C1783.598267,267.214996 1775.641235,260.589844 1762.538818,256.182251 
	C1750.910889,252.270599 1738.830811,251.405457 1726.336670,252.783768 
	C1708.118652,254.793518 1691.739136,259.603821 1679.853638,274.629547 
	C1673.491089,282.673248 1668.961914,291.510345 1667.187866,302.000000 
	C1683.556274,302.000000 1699.528076,302.000000 1716.500000,302.000000 
z"/>
<path fill="#0F4876" opacity="1.000000" stroke="none" 
	d="
M1115.385864,474.967224 
	C1115.362305,470.440735 1115.386353,465.853729 1116.309082,461.455261 
	C1121.760620,435.469330 1127.371704,409.516479 1133.028076,383.574097 
	C1136.786011,366.338928 1140.878174,349.175323 1144.506226,331.913574 
	C1147.573975,317.317627 1150.332642,302.651764 1152.919067,287.962494 
	C1153.707153,283.486450 1154.149414,278.740875 1153.563354,274.274445 
	C1152.292358,264.587494 1145.403687,259.918457 1136.538208,258.109985 
	C1130.802979,256.940033 1124.889771,256.164825 1119.045654,256.092499 
	C1099.386719,255.849182 1079.722656,256.050842 1060.061279,255.950897 
	C1056.712036,255.933884 1055.545410,256.632874 1054.781128,260.463074 
	C1051.489746,276.958038 1047.393188,293.291016 1043.689697,309.705475 
	C1038.738647,331.648743 1033.931152,353.624420 1028.964600,375.564148 
	C1025.392700,391.343353 1021.621216,407.077301 1018.013550,422.848572 
	C1014.296814,439.095978 1010.736023,455.379639 1006.884583,471.594604 
	C1006.565857,472.936157 1004.554260,474.845062 1003.315735,474.855255 
	C979.670349,475.049866 956.022888,474.998993 932.068115,474.998993 
	C939.082581,443.037201 946.068665,411.404480 952.957031,379.750488 
	C957.983643,356.651459 962.949158,333.538605 967.819092,310.406067 
	C973.292175,284.408783 978.595215,258.375732 984.036194,232.371613 
	C986.622498,220.010651 989.375549,207.684662 992.011108,195.333832 
	C992.596985,192.588226 994.156433,191.913559 996.895691,191.931763 
	C1016.223511,192.060272 1035.552612,192.000000 1054.881226,192.000000 
	C1081.208130,192.000000 1107.536255,191.852722 1133.861694,192.047363 
	C1154.335449,192.198730 1174.660645,193.547104 1194.129028,200.936615 
	C1214.711792,208.749146 1227.274536,223.109482 1230.996460,244.939651 
	C1233.409302,259.091064 1231.782837,273.067505 1229.053467,286.992279 
	C1225.685181,304.176544 1222.646484,321.431366 1218.937622,338.541382 
	C1213.556641,363.365448 1207.669312,388.079407 1202.062622,412.855042 
	C1197.668823,432.271912 1193.361328,451.708435 1189.064697,471.147125 
	C1188.825073,472.231415 1189.033691,473.414764 1189.033691,474.993835 
	C1164.431763,474.993835 1140.140259,474.993835 1115.385864,474.967224 
z"/>
<path fill="#0F4876" opacity="1.000000" stroke="none" 
	d="
M1509.035400,161.122559 
	C1506.721191,171.470566 1504.435669,181.390900 1502.025513,191.852234 
	C1529.026123,191.852234 1555.883789,191.852234 1583.222290,191.852234 
	C1580.272705,205.226624 1577.466064,217.993378 1574.638550,230.755539 
	C1573.448853,236.125992 1571.985962,241.448685 1571.087402,246.866074 
	C1570.543091,250.147217 1569.180664,251.088058 1565.921875,251.070648 
	C1541.598633,250.940628 1517.274292,251.031296 1492.950562,250.960327 
	C1489.912964,250.951477 1488.553101,251.426727 1487.782715,255.071320 
	C1483.133179,277.069336 1477.985107,298.961975 1473.001099,320.889252 
	C1469.379272,336.822662 1465.410522,352.687469 1462.248169,368.711487 
	C1460.082764,379.683899 1459.413818,390.940674 1465.119507,401.257690 
	C1469.874878,409.856537 1477.545532,414.688843 1487.374390,414.910706 
	C1502.437500,415.250702 1517.513794,415.000000 1533.328857,415.000000 
	C1531.216919,424.532074 1529.400513,432.666107 1527.614502,440.806763 
	C1525.394653,450.924835 1523.114136,461.031006 1521.047852,471.180542 
	C1520.444458,474.143433 1519.149536,475.085236 1516.100586,475.070312 
	C1490.777588,474.946320 1465.442017,475.475037 1440.134155,474.844269 
	C1421.129639,474.370544 1404.154053,468.226562 1393.083374,451.448761 
	C1386.830078,441.971649 1383.764648,431.382721 1382.854126,419.889435 
	C1381.412842,401.695648 1385.669434,384.281097 1389.203857,366.828278 
	C1394.276001,341.781677 1400.385254,316.945831 1405.991211,292.006409 
	C1412.343506,263.746246 1418.660645,235.478104 1424.934204,207.200333 
	C1431.314087,178.442581 1437.718872,149.689682 1443.923218,120.893806 
	C1447.192505,105.719681 1450.057373,90.458351 1453.121094,75.154770 
	C1478.080811,75.154770 1502.701172,75.154770 1528.245361,75.154770 
	C1527.820679,78.417839 1527.678223,81.610039 1526.963623,84.668510 
	C1521.444092,108.288574 1515.812256,131.882385 1510.221313,155.485733 
	C1509.811401,157.216415 1509.448730,158.958252 1509.035400,161.122559 
z"/>
<path fill="#0F4976" opacity="1.000000" stroke="none" 
	d="
M40.071926,327.724304 
	C35.572308,309.289368 34.811733,290.440491 36.200649,271.748810 
	C39.086990,232.905121 51.905933,197.481705 75.367043,166.044403 
	C93.090340,142.295624 114.879654,123.390251 140.730560,109.016243 
	C160.432724,98.061172 181.433884,90.289719 203.634689,87.333298 
	C220.762009,85.052505 238.359070,84.294846 255.596725,85.340851 
	C278.472961,86.729019 300.445465,92.991585 321.485626,102.667587 
	C347.168762,114.478783 369.402740,130.814560 388.097504,151.771088 
	C408.332825,174.454666 422.629974,200.498459 431.209930,229.882675 
	C437.887909,252.752945 440.063782,275.953156 438.844391,299.462555 
	C437.755341,320.458984 432.884094,340.819794 425.178619,360.458588 
	C418.028961,378.680664 408.461090,395.592224 396.394775,410.898499 
	C385.099518,425.226685 371.971619,437.776306 357.097565,448.608154 
	C339.364594,461.522034 320.354584,471.616394 299.455963,478.184204 
	C284.207977,482.976227 268.734131,486.570221 252.653732,487.024506 
	C245.559738,487.224884 238.448303,488.215088 231.386734,487.901764 
	C207.204605,486.828674 183.710449,482.362732 161.187332,473.089966 
	C143.972549,466.002625 127.649193,457.155426 113.389938,445.411987 
	C101.407104,435.543396 91.124565,423.610229 80.103363,411.959167 
	C82.721184,406.165619 85.324928,401.003937 88.078163,396.163879 
	C89.108063,397.891724 90.084763,399.247375 90.854134,400.711945 
	C99.357895,416.899384 110.045357,431.438721 124.442024,442.816620 
	C152.488647,464.982330 184.783829,474.070557 220.072708,470.736420 
	C244.027451,468.473145 266.590881,460.724945 287.726685,448.765930 
	C311.467285,435.333038 331.878784,418.045166 349.145813,397.131744 
	C365.307159,377.557495 378.120148,355.881531 387.437286,332.170898 
	C395.676666,311.202911 401.243835,289.516510 402.769287,267.126984 
	C404.042328,248.442215 403.440247,229.649857 399.024017,211.181976 
	C391.308838,178.918503 376.693848,150.722809 350.273743,129.882645 
	C316.956329,103.601845 279.086670,96.786209 238.062378,105.505409 
	C203.340073,112.885201 173.910538,130.391510 147.790558,153.813004 
	C133.380386,166.734451 121.355827,181.840439 110.734604,197.954559 
	C93.623123,223.915421 82.672165,252.496628 76.291779,282.838654 
	C75.258484,287.752472 75.391037,292.911438 74.795166,298.235474 
	C72.761642,299.858307 70.814674,301.083130 69.090714,302.567017 
	C59.388119,310.918304 49.739174,319.331940 40.071926,327.724304 
z"/>
<path fill="#0F4876" opacity="1.000000" stroke="none" 
	d="
M1351.258179,324.414734 
	C1348.923340,335.107544 1346.865356,345.433258 1344.645630,355.724060 
	C1340.141357,376.606567 1335.603271,397.482147 1330.976929,418.337921 
	C1327.228149,435.237518 1323.006714,452.040710 1319.686157,469.021820 
	C1318.623535,474.455353 1316.374146,475.163086 1311.568848,475.113373 
	C1287.596191,474.865387 1263.619629,475.000000 1238.723511,475.000000 
	C1240.040039,468.739014 1241.244873,462.837738 1242.524902,456.952820 
	C1247.340332,434.813690 1252.146240,412.672394 1257.022217,390.546539 
	C1260.817627,373.323639 1264.788452,356.139099 1268.542480,338.907318 
	C1272.781128,319.450165 1276.818481,299.949249 1281.030273,280.486145 
	C1284.350708,265.142334 1287.722412,249.808594 1291.236694,234.508362 
	C1292.608398,228.536133 1294.229858,222.602936 1296.097900,216.767319 
	C1298.833618,208.220444 1304.429199,201.605942 1312.856934,198.881210 
	C1321.564575,196.065964 1330.731567,193.885605 1339.826294,193.239319 
	C1352.983643,192.304352 1366.256958,192.999985 1380.574585,192.999985 
	C1370.933105,236.394485 1361.197388,280.213165 1351.258179,324.414734 
z"/>
<path fill="#FB7E2F" opacity="1.000000" stroke="none" 
	d="
M39.763351,327.918945 
	C49.739174,319.331940 59.388119,310.918304 69.090714,302.567017 
	C70.814674,301.083130 72.761642,299.858307 75.126282,298.146667 
	C79.794525,294.930511 83.942131,292.081573 88.423035,289.149963 
	C90.516472,287.751465 92.276619,286.435608 94.401199,285.076904 
	C97.842400,283.317596 100.919174,281.601044 104.352760,279.938751 
	C107.487495,278.366699 110.265427,276.740356 113.400963,275.081604 
	C115.185776,274.407440 116.612976,273.765747 118.409790,273.068420 
	C120.846542,272.217529 122.913689,271.422272 125.303848,270.554535 
	C127.416176,269.609192 129.205490,268.736298 131.361816,267.917694 
	C134.165878,267.017273 136.602921,266.062622 139.399780,265.067688 
	C141.507782,264.378510 143.255981,263.729553 145.406357,263.117126 
	C148.869614,262.367798 151.930695,261.581970 155.349792,260.737183 
	C157.804123,260.078705 159.900452,259.479187 162.393295,258.924377 
	C164.858902,258.590576 166.927963,258.212097 169.356842,257.765167 
	C171.811310,257.148254 173.905975,256.599792 176.438400,256.075256 
	C179.916290,255.671860 182.956406,255.244568 186.435593,254.859039 
	C190.581192,254.522476 194.287735,254.144150 198.420547,253.855042 
	C201.897324,253.610794 204.947830,253.277313 208.457642,253.010803 
	C212.945511,253.034637 216.974060,252.991516 221.455658,253.013550 
	C232.228882,253.877136 242.549057,254.675613 252.869247,255.474075 
	C252.903809,255.985184 252.938370,256.496307 252.972931,257.007416 
	C252.254684,257.536316 251.536423,258.065216 250.434662,258.681244 
	C239.663452,262.695557 229.275726,266.622772 218.524323,270.643494 
	C212.108170,273.841949 206.055710,276.946838 199.662323,280.117737 
	C196.202484,282.089905 193.083588,283.996033 189.622955,285.968445 
	C186.461792,287.895264 183.642334,289.755798 180.493469,291.738403 
	C176.386139,294.552704 172.608215,297.244934 168.519501,300.046082 
	C166.142883,301.776794 164.077057,303.398621 161.696930,305.126160 
	C159.549057,306.796509 157.715485,308.361176 155.576233,310.045410 
	C153.469406,311.751068 151.668274,313.337250 149.574005,315.054810 
	C147.842575,316.417664 146.404312,317.649170 144.666611,319.034180 
	C141.513718,322.101257 138.660278,325.014771 135.523224,328.061523 
	C134.039581,329.560028 132.839508,330.925323 131.355865,332.480530 
	C129.328064,334.662659 127.583832,336.654877 125.558670,338.813995 
	C124.166840,340.277374 123.055946,341.573853 121.642815,343.024658 
	C119.524994,345.707977 117.709404,348.236938 115.601547,350.930878 
	C114.168701,352.710510 113.028122,354.325165 111.590584,356.096466 
	C109.447655,359.126862 107.601700,362.000641 105.482758,365.064636 
	C103.448296,368.117279 101.686821,370.979675 99.626984,374.018005 
	C97.937271,376.798767 96.545929,379.403625 94.927605,382.276245 
	C92.443306,386.976746 90.185974,391.409485 87.928665,395.842255 
	C85.324928,401.003937 82.721184,406.165619 79.945419,411.644287 
	C52.953999,411.782104 35.769566,396.559509 31.362257,371.597198 
	C29.178989,359.231537 30.371574,346.244873 35.417953,334.210632 
	C36.343971,332.002319 38.088223,330.137115 39.763351,327.918945 
z"/>
<path fill="#0F4876" opacity="1.000000" stroke="none" 
	d="
M911.000000,127.000000 
	C893.183167,127.000000 875.866333,127.000000 858.225220,127.000000 
	C862.271851,109.277054 866.257690,91.820328 870.283081,74.190582 
	C896.757996,74.190582 923.195862,74.190582 950.156860,74.190582 
	C946.264160,91.762642 942.425964,109.088600 938.458008,127.000000 
	C929.741943,127.000000 920.620972,127.000000 911.000000,127.000000 
z"/>
<path fill="#0F4876" opacity="1.000000" stroke="none" 
	d="
M650.000000,127.000000 
	C635.724060,127.000000 621.948120,127.000000 607.877747,127.000000 
	C611.082886,112.791740 614.129883,99.077171 617.294800,85.389877 
	C618.161438,81.642242 618.283630,76.438408 620.735840,74.687355 
	C623.414917,72.774292 628.400146,74.017525 632.380432,74.012344 
	C652.853638,73.985710 673.326782,74.000000 693.799988,74.000000 
	C695.435547,74.000000 697.071167,74.000000 699.407837,74.000000 
	C695.426880,91.963737 691.564087,109.394386 687.662537,127.000000 
	C675.104248,127.000000 662.802124,127.000000 650.000000,127.000000 
z"/>
<path fill="#0F4876" opacity="1.000000" stroke="none" 
	d="
M1310.196289,177.000000 
	C1308.242432,177.000000 1306.764160,177.000000 1304.851929,177.000000 
	C1309.000244,159.141724 1313.046875,141.721283 1317.122070,124.177841 
	C1343.399170,124.177841 1369.483643,124.177841 1396.478394,124.177841 
	C1392.545776,141.947449 1388.691650,159.362305 1384.788086,177.000000 
	C1359.908936,177.000000 1335.290405,177.000000 1310.196289,177.000000 
z"/>
<path fill="#FFFFFF" opacity="1.000000" stroke="none" 
	d="
M1985.447754,321.535400 
	C1985.133301,322.004547 1984.656250,322.259064 1984.179321,322.513611 
	C1984.241455,322.056458 1984.303589,321.599365 1984.641357,321.035278 
	C1985.039795,321.059143 1985.162598,321.190002 1985.447754,321.535400 
z"/>
<path fill="#FFFFFF" opacity="1.000000" stroke="none" 
	d="
M1716.000000,302.000000 
	C1699.528076,302.000000 1683.556274,302.000000 1667.187866,302.000000 
	C1668.961914,291.510345 1673.491089,282.673248 1679.853638,274.629547 
	C1691.739136,259.603821 1708.118652,254.793518 1726.336670,252.783768 
	C1738.830811,251.405457 1750.910889,252.270599 1762.538818,256.182251 
	C1775.641235,260.589844 1783.598267,267.214996 1783.030029,284.284088 
	C1782.839722,290.003265 1783.000000,295.734161 1783.000000,302.000000 
	C1760.024536,302.000000 1738.262207,302.000000 1716.000000,302.000000 
z"/>
<path fill="#154F7C" opacity="1.000000" stroke="none" 
	d="
M88.078156,396.163879 
	C90.185974,391.409485 92.443306,386.976746 95.268661,382.321198 
	C98.047684,385.713074 100.454544,389.223816 102.437492,392.959534 
	C114.299431,415.306580 131.192932,432.718872 153.708145,444.263611 
	C181.661209,458.596710 211.208740,460.486237 241.343048,453.270996 
	C282.376190,443.446228 314.761597,419.808594 341.288757,387.864563 
	C353.914886,372.660217 364.155945,355.771759 372.316772,337.591827 
	C383.964172,311.644775 390.468933,284.495209 390.685455,256.232635 
	C390.794647,241.977905 388.744080,227.451279 385.687317,213.481430 
	C379.543976,185.405136 365.421021,161.423721 343.234863,142.978989 
	C316.083801,120.406609 284.293671,112.818069 249.617126,117.153351 
	C226.156265,120.086426 204.380951,128.439819 184.580414,141.156570 
	C173.626816,148.191422 163.306259,156.441452 153.643234,165.185684 
	C145.520706,172.535904 138.364227,181.076355 131.512115,189.673355 
	C124.634132,198.302811 117.879013,207.215775 112.507538,216.809341 
	C106.899445,226.825516 102.144585,237.520416 98.582802,248.429901 
	C94.233116,261.752625 91.514000,275.607727 88.089737,289.232605 
	C83.942131,292.081573 79.794525,294.930511 75.315811,297.868286 
	C75.391037,292.911438 75.258484,287.752472 76.291779,282.838654 
	C82.672165,252.496628 93.623123,223.915421 110.734604,197.954559 
	C121.355827,181.840439 133.380386,166.734451 147.790558,153.813004 
	C173.910538,130.391510 203.340073,112.885201 238.062378,105.505409 
	C279.086670,96.786209 316.956329,103.601845 350.273743,129.882645 
	C376.693848,150.722809 391.308838,178.918503 399.024017,211.181976 
	C403.440247,229.649857 404.042328,248.442215 402.769287,267.126984 
	C401.243835,289.516510 395.676666,311.202911 387.437286,332.170898 
	C378.120148,355.881531 365.307159,377.557495 349.145813,397.131744 
	C331.878784,418.045166 311.467285,435.333038 287.726685,448.765930 
	C266.590881,460.724945 244.027451,468.473145 220.072708,470.736420 
	C184.783829,474.070557 152.488647,464.982330 124.442024,442.816620 
	C110.045357,431.438721 99.357895,416.899384 90.854134,400.711945 
	C90.084763,399.247375 89.108063,397.891724 88.078156,396.163879 
z"/>
<path fill="#205984" opacity="1.000000" stroke="none" 
	d="
M103.995956,279.884491 
	C100.919174,281.601044 97.842400,283.317596 94.391205,284.655701 
	C94.889717,280.070587 95.619133,275.828094 96.658310,271.662872 
	C104.848808,238.833603 120.132835,209.579010 142.435104,184.260620 
	C162.107437,161.927826 185.246155,144.069489 213.202545,132.833954 
	C237.815979,122.941940 263.268066,119.623230 289.161530,124.430130 
	C320.288483,130.208588 344.838989,146.964752 362.277405,173.569199 
	C383.448425,205.868179 387.938507,241.744659 383.661560,279.137726 
	C381.757172,295.787720 377.278778,311.971680 370.984009,327.582245 
	C357.625885,360.709412 337.632751,389.184479 310.207245,412.056671 
	C289.431305,429.383392 265.926697,441.829254 239.277756,447.785950 
	C223.413925,451.331909 207.409378,451.978302 191.343094,449.837402 
	C176.657700,447.880524 163.079239,442.474762 150.344666,435.084442 
	C139.198990,428.616119 129.778290,420.115234 121.410294,410.227051 
	C112.131851,399.263031 106.298439,386.431274 99.925339,373.842041 
	C101.686821,370.979675 103.448296,368.117279 105.813004,365.223694 
	C107.580917,367.170868 109.062645,369.029724 109.860504,371.146362 
	C116.704910,389.304291 127.787354,404.633636 142.585190,416.833801 
	C168.299942,438.034393 198.437683,444.824585 230.878128,439.672058 
	C264.171753,434.384064 292.349762,418.175690 316.434265,394.954346 
	C337.540070,374.604950 352.919189,350.358154 363.533325,323.027496 
	C375.058319,293.351562 379.218506,262.838013 374.015198,231.317078 
	C369.037476,201.162735 356.366180,175.143692 332.107941,155.593674 
	C313.340881,140.469101 291.604553,133.212082 267.820068,132.100906 
	C252.455719,131.383118 237.408554,134.266602 222.906372,139.220276 
	C195.013214,148.748108 171.533524,164.967178 151.660507,186.722351 
	C135.565598,204.341614 122.807961,224.050217 114.117630,246.174591 
	C109.842926,257.057373 107.314575,268.626160 103.995956,279.884491 
z"/>
<path fill="#29618A" opacity="1.000000" stroke="none" 
	d="
M104.352760,279.938751 
	C107.314575,268.626160 109.842926,257.057373 114.117630,246.174591 
	C122.807961,224.050217 135.565598,204.341614 151.660507,186.722351 
	C171.533524,164.967178 195.013214,148.748108 222.906372,139.220276 
	C237.408554,134.266602 252.455719,131.383118 267.820068,132.100906 
	C291.604553,133.212082 313.340881,140.469101 332.107941,155.593674 
	C356.366180,175.143692 369.037476,201.162735 374.015198,231.317078 
	C379.218506,262.838013 375.058319,293.351562 363.533325,323.027496 
	C352.919189,350.358154 337.540070,374.604950 316.434265,394.954346 
	C292.349762,418.175690 264.171753,434.384064 230.878128,439.672058 
	C198.437683,444.824585 168.299942,438.034393 142.585190,416.833801 
	C127.787354,404.633636 116.704910,389.304291 109.860504,371.146362 
	C109.062645,369.029724 107.580917,367.170868 106.085983,365.033447 
	C107.601700,362.000641 109.447655,359.126862 111.911957,356.257690 
	C113.258408,357.352600 114.142639,358.370331 114.689110,359.545166 
	C118.041298,366.751709 121.151886,374.074951 124.655243,381.205872 
	C130.572235,393.249664 139.758972,402.765839 150.081543,410.892670 
	C174.027618,429.745239 201.756241,435.362183 231.331192,430.769714 
	C261.019806,426.159576 286.403290,411.934143 308.460632,391.916840 
	C328.414459,373.808594 343.234985,351.913116 353.924164,327.193604 
	C361.753693,309.087250 366.710358,290.149536 367.751373,270.543518 
	C368.406342,258.207397 367.425690,245.647110 365.842621,233.359528 
	C362.994354,211.251724 353.964294,191.364395 339.114014,174.881531 
	C314.345886,147.390472 282.583313,137.240509 246.415222,142.288010 
	C214.510239,146.740570 187.582535,162.230545 164.447632,184.187988 
	C145.794189,201.892059 131.821655,223.088150 121.849846,246.719086 
	C118.015793,255.804901 115.927231,265.627289 113.043350,275.114044 
	C110.265427,276.740356 107.487495,278.366699 104.352760,279.938751 
z"/>
<path fill="#386991" opacity="1.000000" stroke="none" 
	d="
M115.893829,350.765900 
	C117.709404,348.236938 119.524994,345.707977 121.790817,343.372314 
	C122.528549,344.343018 122.869804,345.105225 123.095619,345.900177 
	C128.031158,363.275055 135.901886,379.213196 148.706619,392.011536 
	C167.928894,411.224152 191.276901,420.195618 218.762787,419.184265 
	C235.923141,418.552887 251.898682,414.328644 267.060822,406.878937 
	C287.764191,396.706604 304.988068,382.160736 319.460541,364.143524 
	C341.657135,336.510376 354.105347,304.999023 356.837280,269.859680 
	C358.343201,250.489670 355.637024,231.326523 347.884125,213.332077 
	C333.011383,178.812592 307.191528,158.054688 269.415283,154.192963 
	C249.236938,152.130219 229.806702,156.569977 211.390015,165.266418 
	C187.722916,176.442169 168.539825,193.034744 152.879868,213.763885 
	C139.946350,230.884048 130.396515,249.767227 124.980827,270.626984 
	C122.913689,271.422272 120.846542,272.217529 118.398132,272.633545 
	C118.309723,270.134613 118.320404,267.928833 118.937416,265.908142 
	C129.557739,231.127441 148.635284,201.876633 176.774078,178.775986 
	C202.737335,157.461319 231.918365,144.850952 266.281799,145.891632 
	C283.871796,146.424362 300.177490,150.854340 314.770813,160.361496 
	C346.066315,180.749741 360.661316,211.150803 363.808502,247.294952 
	C365.886475,271.159424 362.538910,294.652435 353.825012,317.171387 
	C343.252167,344.494415 328.089386,368.668121 306.159180,388.498230 
	C293.100403,400.306488 278.970337,410.210358 262.761841,417.108429 
	C242.246536,425.839447 220.943222,430.415771 198.728317,426.824646 
	C165.985428,421.531586 141.492599,404.005402 125.955338,374.609222 
	C121.939491,367.011353 119.212746,358.732147 115.893829,350.765900 
z"/>
<path fill="#1D5682" opacity="1.000000" stroke="none" 
	d="
M99.626976,374.018005 
	C106.298439,386.431274 112.131851,399.263031 121.410294,410.227051 
	C129.778290,420.115234 139.198990,428.616119 150.344666,435.084442 
	C163.079239,442.474762 176.657700,447.880524 191.343094,449.837402 
	C207.409378,451.978302 223.413925,451.331909 239.277756,447.785950 
	C265.926697,441.829254 289.431305,429.383392 310.207245,412.056671 
	C337.632751,389.184479 357.625885,360.709412 370.984009,327.582245 
	C377.278778,311.971680 381.757172,295.787720 383.661560,279.137726 
	C387.938507,241.744659 383.448425,205.868179 362.277405,173.569199 
	C344.838989,146.964752 320.288483,130.208588 289.161530,124.430130 
	C263.268066,119.623230 237.815979,122.941940 213.202545,132.833954 
	C185.246155,144.069489 162.107437,161.927826 142.435104,184.260620 
	C120.132835,209.579010 104.848808,238.833603 96.658310,271.662872 
	C95.619133,275.828094 94.889717,280.070587 94.026779,284.698486 
	C92.276619,286.435608 90.516472,287.751465 88.423035,289.149963 
	C91.514000,275.607727 94.233116,261.752625 98.582802,248.429901 
	C102.144585,237.520416 106.899445,226.825516 112.507538,216.809341 
	C117.879013,207.215775 124.634132,198.302811 131.512115,189.673355 
	C138.364227,181.076355 145.520706,172.535904 153.643234,165.185684 
	C163.306259,156.441452 173.626816,148.191422 184.580414,141.156570 
	C204.380951,128.439819 226.156265,120.086426 249.617126,117.153351 
	C284.293671,112.818069 316.083801,120.406609 343.234863,142.978989 
	C365.421021,161.423721 379.543976,185.405136 385.687317,213.481430 
	C388.744080,227.451279 390.794647,241.977905 390.685455,256.232635 
	C390.468933,284.495209 383.964172,311.644775 372.316772,337.591827 
	C364.155945,355.771759 353.914886,372.660217 341.288757,387.864563 
	C314.761597,419.808594 282.376190,443.446228 241.343048,453.270996 
	C211.208740,460.486237 181.661209,458.596710 153.708145,444.263611 
	C131.192932,432.718872 114.299431,415.306580 102.437492,392.959534 
	C100.454544,389.223816 98.047684,385.713074 95.495636,382.053406 
	C96.545929,379.403625 97.937271,376.798767 99.626976,374.018005 
z"/>
<path fill="#597C9F" opacity="1.000000" stroke="none" 
	d="
M154.991760,260.796112 
	C151.930695,261.581970 148.869614,262.367798 145.441849,262.738464 
	C151.749161,242.645691 162.794464,225.583939 176.999084,210.640015 
	C188.178665,198.878540 201.331390,189.698120 216.162247,182.853455 
	C233.132233,175.021561 250.854904,171.422836 269.288452,174.200653 
	C295.780334,178.192795 315.610199,192.413071 328.029510,216.224747 
	C341.438782,241.934586 342.164093,269.267670 335.412781,296.663025 
	C327.994446,326.764954 312.370331,352.277679 288.270538,372.263184 
	C264.733398,391.782074 238.492905,402.940338 207.207748,399.030121 
	C191.048859,397.010468 176.985214,390.620422 165.042374,379.546204 
	C151.291855,366.795685 143.382568,350.830444 139.028275,332.825897 
	C138.595932,331.038239 136.910599,329.553589 135.806824,327.928314 
	C138.660278,325.014771 141.513718,322.101257 144.716812,319.432190 
	C145.718369,322.411041 146.390366,325.140808 147.018936,327.880554 
	C151.079269,345.578583 158.574493,361.303009 172.753143,373.290680 
	C192.351303,389.860352 214.841690,394.088104 239.305496,388.284241 
	C263.698944,382.497070 283.666840,369.313293 299.540436,349.952820 
	C324.479095,319.536011 335.792694,285.183716 328.903137,245.849014 
	C325.575592,226.850906 316.718048,210.399673 301.561005,198.539566 
	C273.340729,176.457764 240.382111,179.285538 211.565125,194.387558 
	C191.308197,205.003555 175.541901,220.800278 164.083252,240.592804 
	C160.402405,246.950745 157.986420,254.040939 154.991760,260.796112 
z"/>
<path fill="#477197" opacity="1.000000" stroke="none" 
	d="
M125.839600,338.647125 
	C127.583832,336.654877 129.328064,334.662659 131.528778,332.884827 
	C132.664154,335.139191 133.430756,337.154633 134.008316,339.222870 
	C139.647369,359.416138 149.307373,377.077667 166.427811,389.860657 
	C186.049545,404.511169 208.295502,409.648865 232.191132,405.636383 
	C264.222321,400.257843 289.668213,383.253632 310.059357,358.423950 
	C337.181519,325.398132 349.447449,287.725220 343.897827,245.033707 
	C340.895447,221.937210 330.998108,202.171570 313.161530,186.541489 
	C294.236420,169.957565 271.864685,164.743179 247.766235,167.259735 
	C220.376389,170.120026 197.489304,183.356476 177.629074,201.942444 
	C165.412140,213.375488 155.526657,226.761566 147.914185,241.596680 
	C144.114304,249.001816 141.946167,257.244232 139.039963,265.107941 
	C136.602921,266.062622 134.165878,267.017273 131.363495,267.511780 
	C131.461426,264.792389 131.636185,262.425720 132.431595,260.290192 
	C142.965942,232.006683 159.287720,207.786667 182.838486,188.630081 
	C209.614944,166.849640 239.628540,155.230942 274.562195,160.063477 
	C300.599365,163.665344 320.850464,177.266785 334.865784,199.126587 
	C353.292328,227.866638 356.019012,259.553711 349.295044,292.372833 
	C345.909546,308.897186 339.971405,324.520386 331.449402,339.156250 
	C316.331238,365.120483 296.271423,386.172852 269.751831,400.528992 
	C251.457184,410.432617 231.822830,415.756287 210.828262,413.894928 
	C202.472672,413.154114 193.806259,412.410309 185.998520,409.643829 
	C160.496460,400.607697 142.991608,382.686798 132.515198,357.908722 
	C129.874756,351.663757 128.042984,345.076874 125.839600,338.647125 
z"/>
<path fill="#7E99B4" opacity="1.000000" stroke="none" 
	d="
M168.830292,299.937164 
	C172.608215,297.244934 176.386139,294.552704 180.671875,292.156128 
	C181.452942,296.235626 181.849701,300.015259 181.978012,303.803986 
	C182.521118,319.840363 189.279984,332.835266 202.236298,341.967560 
	C217.190369,352.507935 233.507935,351.775940 249.539200,344.629425 
	C269.433350,335.760864 282.589233,320.157227 289.739075,299.930420 
	C296.392914,281.106812 296.967041,262.140015 286.082428,244.286377 
	C278.998901,232.667450 268.467529,225.670944 255.025040,224.116852 
	C236.877792,222.018829 221.360123,228.781052 208.086319,240.654449 
	C204.045822,244.268646 201.321442,249.354172 197.994293,253.765823 
	C194.287735,254.144150 190.581192,254.522476 186.437134,254.483368 
	C186.455475,252.497787 186.535538,250.665680 187.423767,249.401291 
	C200.049026,231.429459 216.167831,218.344147 238.109329,213.444885 
	C251.233047,210.514542 263.908936,211.736954 275.673065,218.235962 
	C295.670471,229.283356 303.677185,247.766556 304.820862,269.369751 
	C305.771118,287.319641 300.894897,304.299835 291.159180,319.457855 
	C274.617432,345.212494 252.792877,362.511139 220.221405,360.950226 
	C207.395737,360.335602 196.294724,354.927795 187.630890,345.758759 
	C176.499756,333.978516 171.625931,319.318665 170.908585,303.195557 
	C170.858994,302.080811 169.552353,301.022003 168.830292,299.937164 
z"/>
<path fill="#4F759A" opacity="1.000000" stroke="none" 
	d="
M139.399780,265.067688 
	C141.946167,257.244232 144.114304,249.001816 147.914185,241.596680 
	C155.526657,226.761566 165.412140,213.375488 177.629074,201.942444 
	C197.489304,183.356476 220.376389,170.120026 247.766235,167.259735 
	C271.864685,164.743179 294.236420,169.957565 313.161530,186.541489 
	C330.998108,202.171570 340.895447,221.937210 343.897827,245.033707 
	C349.447449,287.725220 337.181519,325.398132 310.059357,358.423950 
	C289.668213,383.253632 264.222321,400.257843 232.191132,405.636383 
	C208.295502,409.648865 186.049545,404.511169 166.427811,389.860657 
	C149.307373,377.077667 139.647369,359.416138 134.008316,339.222870 
	C133.430756,337.154633 132.664154,335.139191 131.812347,332.694946 
	C132.839508,330.925323 134.039581,329.560028 135.523224,328.061523 
	C136.910599,329.553589 138.595932,331.038239 139.028275,332.825897 
	C143.382568,350.830444 151.291855,366.795685 165.042374,379.546204 
	C176.985214,390.620422 191.048859,397.010468 207.207748,399.030121 
	C238.492905,402.940338 264.733398,391.782074 288.270538,372.263184 
	C312.370331,352.277679 327.994446,326.764954 335.412781,296.663025 
	C342.164093,269.267670 341.438782,241.934586 328.029510,216.224747 
	C315.610199,192.413071 295.780334,178.192795 269.288452,174.200653 
	C250.854904,171.422836 233.132233,175.021561 216.162247,182.853455 
	C201.331390,189.698120 188.178665,198.878540 176.999084,210.640015 
	C162.794464,225.583939 151.749161,242.645691 145.039658,262.701965 
	C143.255981,263.729553 141.507782,264.378510 139.399780,265.067688 
z"/>
<path fill="#6182A3" opacity="1.000000" stroke="none" 
	d="
M155.349792,260.737183 
	C157.986420,254.040939 160.402405,246.950745 164.083252,240.592804 
	C175.541901,220.800278 191.308197,205.003555 211.565125,194.387558 
	C240.382111,179.285538 273.340729,176.457764 301.561005,198.539566 
	C316.718048,210.399673 325.575592,226.850906 328.903137,245.849014 
	C335.792694,285.183716 324.479095,319.536011 299.540436,349.952820 
	C283.666840,369.313293 263.698944,382.497070 239.305496,388.284241 
	C214.841690,394.088104 192.351303,389.860352 172.753143,373.290680 
	C158.574493,361.303009 151.079269,345.578583 147.018936,327.880554 
	C146.390366,325.140808 145.718369,322.411041 145.016251,319.278656 
	C146.404312,317.649170 147.842575,316.417664 149.913879,315.234680 
	C151.356567,317.570038 152.531296,319.797211 152.916809,322.153473 
	C155.478760,337.812256 161.722992,351.769867 172.768417,363.167999 
	C197.252625,388.434052 233.185852,387.811432 261.190582,373.172455 
	C277.019684,364.898041 290.116638,353.315887 300.669678,338.846893 
	C316.101196,317.689178 324.237366,293.897156 324.756378,267.893219 
	C324.985687,256.404755 322.647430,244.953064 318.225098,233.967239 
	C304.859711,200.765533 273.163971,184.814392 239.442505,191.389297 
	C218.899643,195.394699 201.752075,205.981339 187.134094,220.537766 
	C177.214050,230.416016 169.357193,241.988297 163.209961,254.628403 
	C162.575272,255.933472 162.390381,257.457306 161.996765,258.879639 
	C159.900452,259.479187 157.804123,260.078705 155.349792,260.737183 
z"/>
<path fill="#7591AF" opacity="1.000000" stroke="none" 
	d="
M168.519501,300.046082 
	C169.552353,301.022003 170.858994,302.080811 170.908585,303.195557 
	C171.625931,319.318665 176.499756,333.978516 187.630890,345.758759 
	C196.294724,354.927795 207.395737,360.335602 220.221405,360.950226 
	C252.792877,362.511139 274.617432,345.212494 291.159180,319.457855 
	C300.894897,304.299835 305.771118,287.319641 304.820862,269.369751 
	C303.677185,247.766556 295.670471,229.283356 275.673065,218.235962 
	C263.908936,211.736954 251.233047,210.514542 238.109329,213.444885 
	C216.167831,218.344147 200.049026,231.429459 187.423767,249.401291 
	C186.535538,250.665680 186.455475,252.497787 185.998077,254.441589 
	C182.956406,255.244568 179.916290,255.671860 176.442871,255.694672 
	C176.896957,253.165482 177.381317,250.728928 178.741959,248.970398 
	C184.413681,241.639999 189.607422,233.716049 196.329712,227.465042 
	C214.932983,210.165955 236.432755,199.843369 262.769409,204.014526 
	C280.610138,206.840103 293.947510,216.416229 302.927063,231.935684 
	C312.550812,248.568527 315.246124,266.743591 311.774384,285.322144 
	C305.087036,321.108521 286.280121,348.458954 252.618317,364.034882 
	C238.255035,370.681061 222.798904,372.627625 207.432846,368.115967 
	C183.445297,361.072998 169.999069,344.133240 164.978241,320.052368 
	C163.935852,315.052887 162.997513,310.031647 162.011230,305.020447 
	C164.077057,303.398621 166.142883,301.776794 168.519501,300.046082 
z"/>
<path fill="#416D94" opacity="1.000000" stroke="none" 
	d="
M125.558662,338.813995 
	C128.042984,345.076874 129.874756,351.663757 132.515198,357.908722 
	C142.991608,382.686798 160.496460,400.607697 185.998520,409.643829 
	C193.806259,412.410309 202.472672,413.154114 210.828262,413.894928 
	C231.822830,415.756287 251.457184,410.432617 269.751831,400.528992 
	C296.271423,386.172852 316.331238,365.120483 331.449402,339.156250 
	C339.971405,324.520386 345.909546,308.897186 349.295044,292.372833 
	C356.019012,259.553711 353.292328,227.866638 334.865784,199.126587 
	C320.850464,177.266785 300.599365,163.665344 274.562195,160.063477 
	C239.628540,155.230942 209.614944,166.849640 182.838486,188.630081 
	C159.287720,207.786667 142.965942,232.006683 132.431595,260.290192 
	C131.636185,262.425720 131.461426,264.792389 130.996490,267.457520 
	C129.205490,268.736298 127.416176,269.609192 125.303848,270.554535 
	C130.396515,249.767227 139.946350,230.884048 152.879868,213.763885 
	C168.539825,193.034744 187.722916,176.442169 211.390015,165.266418 
	C229.806702,156.569977 249.236938,152.130219 269.415283,154.192963 
	C307.191528,158.054688 333.011383,178.812592 347.884125,213.332077 
	C355.637024,231.326523 358.343201,250.489670 356.837280,269.859680 
	C354.105347,304.999023 341.657135,336.510376 319.460541,364.143524 
	C304.988068,382.160736 287.764191,396.706604 267.060822,406.878937 
	C251.898682,414.328644 235.923141,418.552887 218.762787,419.184265 
	C191.276901,420.195618 167.928894,411.224152 148.706619,392.011536 
	C135.901886,379.213196 128.031158,363.275055 123.095619,345.900177 
	C122.869804,345.105225 122.528549,344.343018 122.093056,343.217957 
	C123.055946,341.573853 124.166840,340.277374 125.558662,338.813995 
z"/>
<path fill="#30648D" opacity="1.000000" stroke="none" 
	d="
M115.601562,350.930878 
	C119.212746,358.732147 121.939491,367.011353 125.955338,374.609222 
	C141.492599,404.005402 165.985428,421.531586 198.728317,426.824646 
	C220.943222,430.415771 242.246536,425.839447 262.761841,417.108429 
	C278.970337,410.210358 293.100403,400.306488 306.159180,388.498230 
	C328.089386,368.668121 343.252167,344.494415 353.825012,317.171387 
	C362.538910,294.652435 365.886475,271.159424 363.808502,247.294952 
	C360.661316,211.150803 346.066315,180.749741 314.770813,160.361496 
	C300.177490,150.854340 283.871796,146.424362 266.281799,145.891632 
	C231.918365,144.850952 202.737335,157.461319 176.774078,178.775986 
	C148.635284,201.876633 129.557739,231.127441 118.937416,265.908142 
	C118.320404,267.928833 118.309723,270.134613 118.028519,272.689148 
	C116.612976,273.765747 115.185776,274.407440 113.400955,275.081604 
	C115.927231,265.627289 118.015793,255.804901 121.849846,246.719086 
	C131.821655,223.088150 145.794189,201.892059 164.447632,184.187988 
	C187.582535,162.230545 214.510239,146.740570 246.415222,142.288010 
	C282.583313,137.240509 314.345886,147.390472 339.114014,174.881531 
	C353.964294,191.364395 362.994354,211.251724 365.842621,233.359528 
	C367.425690,245.647110 368.406342,258.207397 367.751373,270.543518 
	C366.710358,290.149536 361.753693,309.087250 353.924164,327.193604 
	C343.234985,351.913116 328.414459,373.808594 308.460632,391.916840 
	C286.403290,411.934143 261.019806,426.159576 231.331192,430.769714 
	C201.756241,435.362183 174.027618,429.745239 150.081543,410.892670 
	C139.758972,402.765839 130.572235,393.249664 124.655243,381.205872 
	C121.151886,374.074951 118.041298,366.751709 114.689110,359.545166 
	C114.142639,358.370331 113.258408,357.352600 112.208923,356.101013 
	C113.028122,354.325165 114.168701,352.710510 115.601562,350.930878 
z"/>
<path fill="#6986A7" opacity="1.000000" stroke="none" 
	d="
M162.393295,258.924377 
	C162.390381,257.457306 162.575272,255.933472 163.209961,254.628403 
	C169.357193,241.988297 177.214050,230.416016 187.134094,220.537766 
	C201.752075,205.981339 218.899643,195.394699 239.442505,191.389297 
	C273.163971,184.814392 304.859711,200.765533 318.225098,233.967239 
	C322.647430,244.953064 324.985687,256.404755 324.756378,267.893219 
	C324.237366,293.897156 316.101196,317.689178 300.669678,338.846893 
	C290.116638,353.315887 277.019684,364.898041 261.190582,373.172455 
	C233.185852,387.811432 197.252625,388.434052 172.768417,363.167999 
	C161.722992,351.769867 155.478760,337.812256 152.916809,322.153473 
	C152.531296,319.797211 151.356567,317.570038 150.207031,315.103271 
	C151.668274,313.337250 153.469406,311.751068 155.879456,310.289581 
	C156.991379,312.319702 157.743683,314.197571 157.958069,316.134979 
	C159.728668,332.134705 165.553268,346.593018 176.769577,358.018372 
	C193.670792,375.234467 214.765747,380.440704 238.054413,375.353760 
	C261.513153,370.229645 280.077240,357.074005 294.456238,338.011169 
	C314.135468,311.921631 323.170898,282.972870 316.931396,250.281372 
	C313.769440,233.714447 305.870911,219.441086 292.312469,209.336609 
	C269.901886,192.635071 245.591568,192.692184 220.806610,203.656937 
	C203.054199,211.510513 189.014694,224.094894 177.964462,239.836548 
	C174.156708,245.260910 171.940353,251.802399 168.997040,257.833588 
	C166.927963,258.212097 164.858902,258.590576 162.393295,258.924377 
z"/>
<path fill="#6F8AAB" opacity="1.000000" stroke="none" 
	d="
M169.356842,257.765167 
	C171.940353,251.802399 174.156708,245.260910 177.964462,239.836548 
	C189.014694,224.094894 203.054199,211.510513 220.806610,203.656937 
	C245.591568,192.692184 269.901886,192.635071 292.312469,209.336609 
	C305.870911,219.441086 313.769440,233.714447 316.931396,250.281372 
	C323.170898,282.972870 314.135468,311.921631 294.456238,338.011169 
	C280.077240,357.074005 261.513153,370.229645 238.054413,375.353760 
	C214.765747,380.440704 193.670792,375.234467 176.769577,358.018372 
	C165.553268,346.593018 159.728668,332.134705 157.958069,316.134979 
	C157.743683,314.197571 156.991379,312.319702 156.185150,310.170044 
	C157.715485,308.361176 159.549057,306.796509 161.696930,305.126160 
	C162.997513,310.031647 163.935852,315.052887 164.978241,320.052368 
	C169.999069,344.133240 183.445297,361.072998 207.432846,368.115967 
	C222.798904,372.627625 238.255035,370.681061 252.618317,364.034882 
	C286.280121,348.458954 305.087036,321.108521 311.774384,285.322144 
	C315.246124,266.743591 312.550812,248.568527 302.927063,231.935684 
	C293.947510,216.416229 280.610138,206.840103 262.769409,204.014526 
	C236.432755,199.843369 214.932983,210.165955 196.329712,227.465042 
	C189.607422,233.716049 184.413681,241.639999 178.741959,248.970398 
	C177.381317,250.728928 176.896957,253.165482 176.005112,255.670761 
	C173.905975,256.599792 171.811310,257.148254 169.356842,257.765167 
z"/>
<path fill="#A1B3C7" opacity="1.000000" stroke="none" 
	d="
M200.003250,280.051758 
	C206.055710,276.946838 212.108170,273.841949 218.533539,271.046021 
	C215.034180,278.963104 212.290787,286.720093 212.904190,295.578857 
	C213.763809,307.992828 225.490707,316.846710 237.586395,314.404572 
	C245.542282,312.798248 251.071472,308.119690 255.971451,302.405792 
	C264.720428,292.203613 267.864471,268.973419 251.911407,260.220917 
	C251.402634,259.941772 251.176208,259.147980 250.818161,258.594116 
	C251.536423,258.065216 252.254684,257.536316 252.972931,257.007416 
	C252.938370,256.496307 252.903809,255.985184 252.869247,255.474075 
	C242.549057,254.675613 232.228882,253.877136 221.496063,252.665436 
	C224.813324,249.968292 228.314911,247.124023 232.311844,245.495529 
	C251.712189,237.591034 271.258636,247.649628 275.948486,267.944977 
	C278.874115,280.605530 276.947937,292.845825 270.401031,304.002350 
	C261.451324,319.253510 249.290131,329.324829 230.303986,330.216339 
	C212.254990,331.063843 198.836609,313.916962 199.042145,298.417084 
	C199.123352,292.292145 199.669052,286.173340 200.003250,280.051758 
z"/>
<path fill="#92A6BF" opacity="1.000000" stroke="none" 
	d="
M199.662323,280.117737 
	C199.669052,286.173340 199.123352,292.292145 199.042145,298.417084 
	C198.836609,313.916962 212.254990,331.063843 230.303986,330.216339 
	C249.290131,329.324829 261.451324,319.253510 270.401031,304.002350 
	C276.947937,292.845825 278.874115,280.605530 275.948486,267.944977 
	C271.258636,247.649628 251.712189,237.591034 232.311844,245.495529 
	C228.314911,247.124023 224.813324,249.968292 221.043030,252.600311 
	C216.974060,252.991516 212.945511,253.034637 208.462646,252.648254 
	C209.301682,250.380249 210.289276,248.177002 211.954010,246.781509 
	C215.117569,244.129578 218.544006,241.734207 222.079620,239.592758 
	C239.607025,228.976685 261.988831,228.865921 276.278473,245.771912 
	C285.433899,256.603638 287.905975,269.122742 286.073608,282.898651 
	C282.595215,309.049835 269.275970,327.747070 244.763306,338.103363 
	C222.006805,347.717682 196.812119,334.968262 190.969421,310.973511 
	C188.945404,302.661316 188.448853,294.333588 189.964676,285.902161 
	C193.083588,283.996033 196.202484,282.089905 199.662323,280.117737 
z"/>
<path fill="#8AA0BA" opacity="1.000000" stroke="none" 
	d="
M189.622955,285.968445 
	C188.448853,294.333588 188.945404,302.661316 190.969421,310.973511 
	C196.812119,334.968262 222.006805,347.717682 244.763306,338.103363 
	C269.275970,327.747070 282.595215,309.049835 286.073608,282.898651 
	C287.905975,269.122742 285.433899,256.603638 276.278473,245.771912 
	C261.988831,228.865921 239.607025,228.976685 222.079620,239.592758 
	C218.544006,241.734207 215.117569,244.129578 211.954010,246.781509 
	C210.289276,248.177002 209.301682,250.380249 208.003326,252.581314 
	C204.947830,253.277313 201.897324,253.610794 198.420563,253.855042 
	C201.321442,249.354172 204.045822,244.268646 208.086319,240.654449 
	C221.360123,228.781052 236.877792,222.018829 255.025040,224.116852 
	C268.467529,225.670944 278.998901,232.667450 286.082428,244.286377 
	C296.967041,262.140015 296.392914,281.106812 289.739075,299.930420 
	C282.589233,320.157227 269.433350,335.760864 249.539200,344.629425 
	C233.507935,351.775940 217.190369,352.507935 202.236298,341.967560 
	C189.279984,332.835266 182.521118,319.840363 181.978012,303.803986 
	C181.849701,300.015259 181.452942,296.235626 181.001266,292.034058 
	C183.642334,289.755798 186.461792,287.895264 189.622955,285.968445 
z"/>
<path fill="#AEBCCE" opacity="1.000000" stroke="none" 
	d="
M250.434662,258.681244 
	C251.176208,259.147980 251.402634,259.941772 251.911407,260.220917 
	C267.864471,268.973419 264.720428,292.203613 255.971451,302.405792 
	C251.071472,308.119690 245.542282,312.798248 237.586395,314.404572 
	C225.490707,316.846710 213.763809,307.992828 212.904190,295.578857 
	C212.290787,286.720093 215.034180,278.963104 218.897232,270.952454 
	C229.275726,266.622772 239.663452,262.695557 250.434662,258.681244 
z"/>
</svg>